<?xml version="1.0" encoding="UTF-8" standalone="no"?>
<!DOCTYPE svg PUBLIC "-//W3C//DTD SVG 1.1//EN" "http://www.w3.org/Graphics/SVG/1.1/DTD/svg11.dtd">
<svg version="1.1" xmlns="http://www.w3.org/2000/svg" xmlns:xlink="http://www.w3.org/1999/xlink" preserveAspectRatio="xMidYMid meet" viewBox="0 0 640 640" width="640" height="640"><defs><path d="M304.11 274.98C322.21 274.98 336.88 289.65 336.88 307.75C336.88 339.14 336.88 400.54 336.88 431.94C336.88 450.04 322.21 464.71 304.11 464.71C244.42 464.71 98.12 464.71 38.43 464.71C20.34 464.71 5.66 450.04 5.66 431.94C5.66 400.54 5.66 339.14 5.66 307.75C5.66 289.65 20.34 274.98 38.43 274.98C98.12 274.98 244.42 274.98 304.11 274.98Z" id="dO8Nq8eG"></path><path d="M275.78 213.88C289.1 213.88 299.9 224.68 299.9 238C299.9 275.62 299.9 364.38 299.9 402C299.9 415.32 289.1 426.12 275.78 426.12C270.96 426.12 280.61 426.12 275.78 426.12C262.46 426.12 251.67 415.32 251.67 402C251.67 364.38 251.67 275.62 251.67 238C251.67 224.68 262.46 213.88 275.78 213.88C280.61 213.88 270.96 213.88 275.78 213.88Z" id="fbBdhTflD"></path><path d="M401.2 213.88C412.74 213.88 422.1 223.24 422.1 234.78C422.1 238.96 422.1 230.6 422.1 234.78C422.1 246.33 412.74 255.69 401.2 255.69C371.29 255.69 302.47 255.69 272.57 255.69C261.02 255.69 251.67 246.33 251.67 234.78C251.67 230.6 251.67 238.96 251.67 234.78C251.67 223.24 261.02 213.88 272.57 213.88C302.47 213.88 371.29 213.88 401.2 213.88Z" id="o2LQQkxhYV"></path><path d="M579.67 175.29C609.86 175.29 634.34 199.77 634.34 229.96C634.34 240.89 634.34 219.03 634.34 229.96C634.34 260.15 609.86 284.63 579.67 284.63C534.65 284.63 454.26 284.63 409.24 284.63C379.04 284.63 354.57 260.15 354.57 229.96C354.57 219.03 354.57 240.89 354.57 229.96C354.57 199.77 379.04 175.29 409.24 175.29C454.26 175.29 534.65 175.29 579.67 175.29Z" id="g1OyOkblJy"></path></defs><g><g><g><use xlink:href="#dO8Nq8eG" opacity="1" fill="#d6d6d6" fill-opacity="1"></use></g><g><use xlink:href="#fbBdhTflD" opacity="1" fill="#a6a6a6" fill-opacity="1"></use></g><g><use xlink:href="#o2LQQkxhYV" opacity="1" fill="#a6a6a6" fill-opacity="1"></use></g><g><use xlink:href="#g1OyOkblJy" opacity="1" fill="#976b48" fill-opacity="1"></use></g></g></g></svg>