<?xml version="1.0" encoding="UTF-8" standalone="no"?>
<!DOCTYPE svg PUBLIC "-//W3C//DTD SVG 1.1//EN" "http://www.w3.org/Graphics/SVG/1.1/DTD/svg11.dtd">
<svg version="1.1" xmlns="http://www.w3.org/2000/svg" xmlns:xlink="http://www.w3.org/1999/xlink" preserveAspectRatio="xMidYMid meet" viewBox="0 0 640 640" width="640" height="640"><defs><path d="M183.67 62.53C189.28 62.53 193.83 67.08 193.83 72.69C193.83 184.35 193.83 509.19 193.83 620.86C193.83 626.47 189.28 631.02 183.67 631.02C148.14 631.02 51.72 631.02 16.19 631.02C10.57 631.02 6.02 626.47 6.02 620.86C6.02 509.19 6.02 184.35 6.02 72.69C6.02 67.08 10.57 62.53 16.19 62.53C51.72 62.53 148.14 62.53 183.67 62.53Z" id="aN6NTydC6"></path><path d="M538.96 40.32C554.04 40.32 566.27 52.55 566.27 67.63C566.27 94.74 566.27 148.75 566.27 175.85C566.27 190.94 554.04 203.17 538.96 203.17C432.37 203.17 139.93 203.17 33.34 203.17C18.25 203.17 6.02 190.94 6.02 175.85C6.02 148.75 6.02 94.74 6.02 67.63C6.02 52.55 18.25 40.32 33.34 40.32C139.93 40.32 432.37 40.32 538.96 40.32Z" id="c1CkmIdNR8"></path><path d="M504.2 7.75L634.71 7.75L634.71 243.14L504.2 243.14L504.2 7.75Z" id="a6nEDkAud7"></path><path d="M612.49 25.09C618.18 25.09 622.79 29.7 622.79 35.39C622.79 37.45 622.79 33.33 622.79 35.39C622.79 41.08 618.18 45.69 612.49 45.69C594.39 45.69 550.38 45.69 532.28 45.69C526.59 45.69 521.98 41.08 521.98 35.39C521.98 33.33 521.98 37.45 521.98 35.39C521.98 29.7 526.59 25.09 532.28 25.09C550.38 25.09 594.39 25.09 612.49 25.09Z" id="c6AQ3IihE7"></path><path d="M483.49 50.02C489.18 50.02 493.8 54.64 493.8 60.34C493.8 62.61 493.8 59.12 493.8 61.39C493.8 67.08 489.18 71.7 483.49 71.7C396.45 71.7 145.65 71.7 58.61 71.7C52.91 71.7 48.3 67.08 48.3 61.39C48.3 59.12 48.3 62.61 48.3 60.34C48.3 54.64 52.91 50.02 58.61 50.02C145.65 50.02 396.45 50.02 483.49 50.02Z" id="a1eI1VrvCy"></path></defs><g><g><g><use xlink:href="#aN6NTydC6" opacity="1" fill="#b9b9b9" fill-opacity="1"></use></g><g><use xlink:href="#c1CkmIdNR8" opacity="1" fill="#b9b9b9" fill-opacity="1"></use></g><g><use xlink:href="#a6nEDkAud7" opacity="1" fill="#d9d9d9" fill-opacity="1"></use></g><g><use xlink:href="#c6AQ3IihE7" opacity="1" fill="#fafafa" fill-opacity="1"></use></g><g><use xlink:href="#a1eI1VrvCy" opacity="1" fill="#f2f2f2" fill-opacity="1"></use></g></g></g></svg>