<?xml version="1.0" encoding="UTF-8" standalone="no"?>
<!DOCTYPE svg PUBLIC "-//W3C//DTD SVG 1.1//EN" "http://www.w3.org/Graphics/SVG/1.1/DTD/svg11.dtd">
<svg version="1.1" xmlns="http://www.w3.org/2000/svg" xmlns:xlink="http://www.w3.org/1999/xlink" preserveAspectRatio="xMidYMid meet" viewBox="0 0 640 640" width="640" height="640"><defs><path d="M416.24 84.67C421.86 84.67 426.41 89.22 426.41 94.83C426.41 196.71 426.41 492.2 426.41 594.08C426.41 599.7 421.86 604.25 416.24 604.25C380.71 604.25 284.29 604.25 248.76 604.25C243.14 604.25 238.6 599.7 238.6 594.08C238.6 492.2 238.6 196.71 238.6 94.83C238.6 89.22 243.14 84.67 248.76 84.67C284.29 84.67 380.71 84.67 416.24 84.67Z" id="a1uxLxv35D"></path><path d="M214.72 135.11L214.89 4.59L450.29 4.91L450.11 135.43L214.72 135.11Z" id="bjPjAGCQV"></path><path d="M232.21 26.84C232.21 21.15 236.83 16.55 242.52 16.55C244.58 16.56 240.46 16.55 242.52 16.55C248.21 16.56 252.81 21.18 252.8 26.87C252.78 44.97 252.72 88.98 252.69 107.08C252.68 112.77 248.07 117.37 242.38 117.36C240.32 117.36 244.44 117.36 242.38 117.36C236.69 117.35 232.09 112.74 232.1 107.05C232.12 88.95 232.18 44.94 232.21 26.84Z" id="c36cJdR4H5"></path><path d="M214.72 639.68L214.89 509.17L450.29 509.49L450.11 640L214.72 639.68Z" id="eOjSRVvng"></path><path d="M232.21 531.41C232.21 525.72 236.83 521.12 242.52 521.13C244.58 521.13 240.46 521.12 242.52 521.13C248.21 521.13 252.81 525.75 252.8 531.44C252.78 549.54 252.72 593.55 252.69 611.65C252.68 617.34 248.07 621.94 242.38 621.93C240.32 621.93 244.44 621.94 242.38 621.93C236.69 621.93 232.09 617.31 232.1 611.62C232.12 593.52 232.18 549.51 232.21 531.41Z" id="dIEv6JvAd"></path><path d="M250.04 154.15C250.05 148.46 254.66 143.86 260.35 143.87C262.41 143.87 258.29 143.86 260.35 143.87C266.04 143.87 270.64 148.49 270.63 154.18C270.54 221.49 270.28 413.13 270.19 480.44C270.18 486.13 265.56 490.73 259.88 490.73C257.82 490.72 261.94 490.73 259.88 490.73C254.19 490.72 249.59 486.1 249.59 480.42C249.69 413.1 249.95 221.46 250.04 154.15Z" id="i1oS8Hkk66"></path></defs><g><g><g><use xlink:href="#a1uxLxv35D" opacity="1" fill="#b9b9b9" fill-opacity="1"></use></g><g><use xlink:href="#bjPjAGCQV" opacity="1" fill="#d9d9d9" fill-opacity="1"></use></g><g><use xlink:href="#c36cJdR4H5" opacity="1" fill="#fafafa" fill-opacity="1"></use></g><g><use xlink:href="#eOjSRVvng" opacity="1" fill="#d9d9d9" fill-opacity="1"></use></g><g><use xlink:href="#dIEv6JvAd" opacity="1" fill="#fafafa" fill-opacity="1"></use></g><g><use xlink:href="#i1oS8Hkk66" opacity="1" fill="#fafafa" fill-opacity="1"></use></g></g></g></svg>